<svg xmlns="http://www.w3.org/2000/svg" fill="none" viewBox="0 0 36 36">
  <path d="M4.16463 19.0553V16.4911H13.2354L12.8489 17.1415C12.8489 17.0748 12.8489 17.0123 12.8489 16.9539C12.8489 16.8872 12.8489 16.8247 12.8489 16.7663C12.8489 16.291 12.7329 15.8365 12.501 15.4029C12.2691 14.9609 11.9083 14.6024 11.4187 14.3272C10.9377 14.0437 10.3192 13.9019 9.56331 13.9019C8.80741 13.9019 8.15459 14.0603 7.60484 14.3772C7.06368 14.6858 6.64708 15.1319 6.35502 15.7156C6.07156 16.2993 5.92983 17.0039 5.92983 17.8295C5.92983 18.6801 6.06727 19.4097 6.34214 20.0184C6.6256 20.6188 7.04221 21.0816 7.59195 21.4068C8.15029 21.7321 8.84177 21.8947 9.66639 21.8947C10.199 21.8947 10.6585 21.8488 11.0451 21.7571C11.4316 21.657 11.7451 21.5319 11.9856 21.3818C12.2347 21.2317 12.4237 21.065 12.5526 20.8815C12.6814 20.698 12.7587 20.5188 12.7845 20.3436H16.7272C16.6757 20.9023 16.4781 21.4527 16.1345 21.9947C15.7909 22.5284 15.3142 23.0121 14.7043 23.4457C14.0944 23.871 13.3514 24.2087 12.4753 24.4589C11.6077 24.709 10.6156 24.8341 9.49889 24.8341C7.98708 24.8341 6.66855 24.5422 5.54329 23.9585C4.41803 23.3665 3.54616 22.5534 2.9277 21.5194C2.30923 20.4771 2 19.2763 2 17.9171C2 16.5411 2.31353 15.3362 2.94058 14.3022C3.57623 13.2598 4.45668 12.451 5.58194 11.8756C6.7158 11.2919 8.02574 11 9.51177 11C11.0322 11 12.3464 11.296 13.4545 11.8881C14.5626 12.4718 15.4173 13.2932 16.0185 14.3522C16.6198 15.4029 16.9205 16.6287 16.9205 18.0296C16.9205 18.2381 16.9162 18.4382 16.9076 18.63C16.899 18.8218 16.8861 18.9636 16.8689 19.0553H4.16463Z" fill="#191826"/>
  <path d="M24.7796 24.8341C23.6371 24.8341 22.5849 24.5714 21.6228 24.0461C20.6608 23.5124 19.8877 22.7244 19.3036 21.682C18.7195 20.6397 18.4274 19.3555 18.4274 17.8295C18.4274 16.3702 18.7238 15.1319 19.3165 14.1145C19.9177 13.0972 20.6994 12.3259 21.6615 11.8005C22.6321 11.2668 23.6715 11 24.7796 11C25.8619 11 26.8497 11.2668 27.743 11.8005C28.645 12.3342 29.3665 13.0639 29.9077 13.9895C30.4488 14.9067 30.7194 15.9658 30.7194 17.1666C30.7194 17.2083 30.7194 17.2499 30.7194 17.2916C30.7194 17.325 30.7194 17.3625 30.7194 17.4042L28.9929 17.4292C28.9929 17.4042 28.9929 17.3792 28.9929 17.3542C28.9929 17.3208 28.9929 17.2916 28.9929 17.2666C28.9929 16.6412 28.8382 16.1034 28.529 15.6531C28.2198 15.2028 27.8204 14.8567 27.3307 14.6149C26.8411 14.3647 26.33 14.2396 25.7975 14.2396C24.9127 14.2396 24.1482 14.5273 23.504 15.1027C22.8597 15.6697 22.5376 16.5787 22.5376 17.8295C22.5376 19.0803 22.8597 20.0018 23.504 20.5938C24.1568 21.1775 24.9213 21.4694 25.7975 21.4694C26.3472 21.4694 26.8669 21.3443 27.3565 21.0941C27.8461 20.8356 28.2413 20.4729 28.5419 20.0059C28.8425 19.539 28.9929 18.9886 28.9929 18.3548L30.7194 18.4424C30.7194 19.6348 30.4531 20.7147 29.9206 21.682C29.3966 22.641 28.6836 23.4082 27.7817 23.9835C26.8884 24.5506 25.8877 24.8341 24.7796 24.8341ZM28.9929 30V11.2502H33V30H28.9929Z" fill="#191826"/>
	<style>
    @media (prefers-color-scheme:dark){:root{filter:invert(100%)}}
  </style>
</svg>
